# xmcd
#
# Track frame offsets:
#	150
#	24565
#	35259
#	50943
#	69506
#	88636
#	104246
#	128836
#	153844
#
# Disc length: 2363 seconds
#
# Revision: 1
# Processed by: cddbd v1.5.2PL0 Copyright (c) Steve Scherf et al.
# Submitted via: audiograbber 1.83.01
#
DISCID=78093909
DTITLE=Phantom - Divine Comedy - Part 1
DYEAR=1974
DGENRE=Psychedelic Rock
TTITLE0=Tales From A Wizard
TTITLE1=Devil's Child
TTITLE2=Calm Before The Storm
TTITLE3=Half A Life
TTITLE4=Spiders Will Dance (On Your Face While You Sleep)
TTITLE5=Black Magic/White Magic
TTITLE6=Merlin
TTITLE7=Stand Beside My Fire
TTITLE8=Welcome To Hell
EXTD=
EXTT0=
EXTT1=
EXTT2=
EXTT3=
EXTT4=
EXTT5=
EXTT6=
EXTT7=
EXTT8=
PLAYORDER=
